<?xml version="1.0" encoding="UTF-8" standalone="no"?>
<!-- Created with Inkscape (http://www.inkscape.org/) -->

<svg
   width="512"
   height="512"
   viewBox="0 0 512 511.99999"
   version="1.1"
   id="svg1"
   inkscape:version="1.3.2 (091e20e, 2023-11-25, custom)"
   sodipodi:docname="acLogo.svg"
   xmlns:inkscape="http://www.inkscape.org/namespaces/inkscape"
   xmlns:sodipodi="http://sodipodi.sourceforge.net/DTD/sodipodi-0.dtd"
   xmlns="http://www.w3.org/2000/svg"
   xmlns:svg="http://www.w3.org/2000/svg">
  <sodipodi:namedview
     id="namedview1"
     pagecolor="#ffffff"
     bordercolor="#000000"
     borderopacity="0"
     inkscape:showpageshadow="2"
     inkscape:pageopacity="0.0"
     inkscape:pagecheckerboard="false"
     inkscape:deskcolor="#d1d1d1"
     inkscape:document-units="mm"
     inkscape:zoom="1.0242632"
     inkscape:cx="255.79363"
     inkscape:cy="256.28178"
     inkscape:window-width="1920"
     inkscape:window-height="1009"
     inkscape:window-x="-8"
     inkscape:window-y="-8"
     inkscape:window-maximized="1"
     inkscape:current-layer="layer1"
     inkscape:clip-to-page="false"
     borderlayer="true" />
  <defs
     id="defs1" />
  <g
     inkscape:label="Layer 1"
     inkscape:groupmode="layer"
     id="layer1"
     transform="translate(-16.139574,-86.280047)">
    <g
       id="g1"
       transform="matrix(1.8595004,0,0,1.8595004,-118.32569,-108.1669)">
      <path
         d="m 276.41527,328.63066 c -25.84331,0.67425 -47.90704,-7.67283 -65.56172,-27.39926 -8.49478,-9.49164 -13.6834,-20.94757 -18.16062,-32.90781 -7.92615,-21.17357 -16.13577,-42.23156 -24.23178,-63.33581 -0.35476,-0.92476 -0.7595,-1.8286 -1.50128,-3.60518 -7.20557,18.34665 -14.13215,35.983 -21.26352,54.14073 8.45448,0 16.38231,0.18767 24.29511,-0.0905 3.2632,-0.11486 4.67425,0.93222 5.81638,4.1627 3.34679,9.46641 7.15162,18.75643 10.90304,28.44086 -1.28585,0.0595 -2.42329,0.15716 -3.56078,0.15793 -15.61626,0.0103 -31.23297,0.0682 -46.84831,-0.0564 -2.45409,-0.0205 -3.6433,0.73225 -4.54934,3.13868 -4.0234,10.6861 -8.20228,21.30971 -12.462,31.89585 -0.44132,1.09671 -1.781,2.54834 -2.72234,2.56323 -11.23407,0.17793 -22.47165,0.11486 -34.31016,0.11486 1.46313,-3.58085 2.7719,-6.77757 4.07592,-9.9764 21.23745,-52.0962 42.49053,-104.18546 63.65415,-156.3143 0.88102,-2.17005 1.91344,-2.83363 4.09233,-2.80156 8.73463,0.12858 17.4753,0.19244 26.20645,-0.0307 2.76035,-0.0706 3.96635,0.95891 4.98675,3.47752 13.91447,34.34449 28.00289,68.61236 41.86642,102.97913 7.19543,17.83691 20.54006,27.3386 38.12433,30.60662 17.02179,3.16346 31.85031,-2.5679 44.78688,-14.16185 1.57229,-1.40909 3.15897,-2.80066 4.74428,-4.1937 0.074,-0.0649 0.19995,-0.0646 0.71458,-0.21639 7.27244,8.13129 14.67963,16.4133 22.19993,24.82175 -10.6804,12.24961 -23.06805,21.30199 -38.38499,25.0988 -7.37979,1.82931 -15.05473,2.36179 -22.90977,3.49094 z"
         id="Path 1"
         fill="#595a5c"
         style="mix-blend-mode:normal;fill:#000002;fill-opacity:1;stroke-width:0.671488;stroke-dasharray:none" />
      <path
         d="m 210.13461,184.03782 c 30.96912,-35.70388 92.81265,-37.86211 125.16289,-0.23581 -6.97199,8.26981 -13.97473,16.5762 -21.00108,24.91048 -27.00236,-30.8192 -75.63641,-22.38589 -89.20404,17.60374 -1.38854,-3.29258 -2.62976,-6.19298 -3.83768,-9.10799 -3.99153,-9.63251 -7.91869,-19.29392 -12.00302,-28.88441 -0.74223,-1.74286 -0.65974,-2.95038 0.88292,-4.286 z"
         id="path1"
         fill="#424244"
         style="mix-blend-mode:normal;fill:#0d274a;fill-opacity:1;stroke:#000000;stroke-width:1.17843;stroke-linecap:butt;stroke-dasharray:none;stroke-opacity:1" />
    </g>
  </g>
</svg>
